<svg width="221" height="46" viewBox="0 0 221 46" fill="none" xmlns="http://www.w3.org/2000/svg">
<rect x="0.5" y="0.5" width="220" height="45" rx="22.5" fill="white"/>
<path d="M57.6 16C58.7 16 59.6 15.1 59.6 14C59.6 12.9 58.7 12 57.6 12C56.5 12 55.6 12.9 55.6 14C55.6 15.1 56.5 16 57.6 16ZM54 29.9L55 25.5L57.1 27.5V33.5H59.1V26L57 24L57.6 21C58.9 22.5 60.9 23.5 63.1 23.5V21.5C61.2 21.5 59.6 20.5 58.8 19.1L57.8 17.5C57.4 16.9 56.8 16.5 56.1 16.5C55.8 16.5 55.6 16.6 55.3 16.6L50.1 18.8V23.5H52.1V20.1L53.9 19.4L52.3 27.5L47.4 26.5L47 28.5L54 29.9Z" fill="#303644"/>
<path d="M84.808 16.008V17.592H95.848V16.008H84.808ZM84.92 19.48V21.064H95.736V19.48H84.92ZM86.696 16.632V20.504H88.824V16.632H86.696ZM91.832 16.632V20.504H93.96V16.632H91.832ZM83.64 21.832V23.496H97.032V21.832H83.64ZM85.176 24.312V25.832H93.32V26.568H85.192V29.368H87.288V27.992H95.416V24.312H85.176ZM85.192 28.776V30.328H95.8V28.776H85.192ZM98.3748 27.064V28.792H111.783V27.064H98.3748ZM103.991 24.264V27.768H106.119V24.264H103.991ZM99.8788 16.568V18.248H108.167V19.832H99.9108V23.992H102.023V21.496H110.279V16.568H99.8788ZM99.9108 23.144V24.856H110.615V23.144H99.9108ZM123.222 15.608V24.296H125.366V15.608H123.222ZM118.63 16.568V17.592C118.63 19.944 116.694 21.896 113.126 22.888L113.958 24.536C118.31 23.336 120.854 20.552 120.854 16.568H118.63ZM114.006 16.568V18.28H120.022V16.568H114.006ZM120.358 24.44C117.254 24.44 115.302 25.576 115.302 27.448C115.302 29.32 117.254 30.424 120.358 30.424C123.462 30.424 125.446 29.32 125.446 27.448C125.446 25.576 123.462 24.44 120.358 24.44ZM120.358 26.136C122.278 26.136 123.318 26.552 123.318 27.448C123.318 28.328 122.278 28.76 120.358 28.76C118.454 28.76 117.43 28.328 117.43 27.448C117.43 26.552 118.454 26.136 120.358 26.136ZM137.397 20.92V23.576H139.509V20.92H137.397ZM131.781 22.696V24.376H145.173V22.696H131.781ZM138.453 25.192C135.237 25.192 133.301 26.136 133.301 27.816C133.301 29.496 135.237 30.424 138.453 30.424C141.669 30.424 143.589 29.496 143.589 27.816C143.589 26.136 141.669 25.192 138.453 25.192ZM138.453 26.792C140.453 26.792 141.445 27.112 141.445 27.816C141.445 28.536 140.453 28.84 138.453 28.84C136.453 28.84 135.461 28.536 135.461 27.816C135.461 27.112 136.453 26.792 138.453 26.792ZM137.013 17V17.368C137.013 18.52 135.589 19.816 132.341 20.088L133.077 21.768C136.901 21.4 138.901 19.592 138.901 17.368V17H137.013ZM138.053 17V17.368C138.053 19.608 140.069 21.4 143.877 21.768L144.613 20.088C141.349 19.816 139.941 18.52 139.941 17.368V17H138.053ZM132.997 16.216V17.896H143.973V16.216H132.997ZM149.907 24.248V27.736H151.987V24.248H149.907ZM154.595 24.232V27.736H156.675V24.232H154.595ZM146.515 27.064V28.792H159.923V27.064H146.515ZM148.019 16.568V18.248H156.307V19.816H148.051V23.992H150.163V21.48H158.419V16.568H148.019ZM148.051 23.096V24.808H158.755V23.096H148.051Z" fill="#303644"/>
</svg>
