<svg width="18" height="18" viewBox="0 0 18 18" fill="none" xmlns="http://www.w3.org/2000/svg">
<circle cx="9" cy="9" r="8" fill="white"/>
<path d="M9 17.0625C4.5525 17.0625 0.9375 13.4475 0.9375 9C0.9375 4.5525 4.5525 0.9375 9 0.9375C13.4475 0.9375 17.0625 4.5525 17.0625 9C17.0625 13.4475 13.4475 17.0625 9 17.0625ZM9 2.0625C5.175 2.0625 2.0625 5.175 2.0625 9C2.0625 12.825 5.175 15.9375 9 15.9375C12.825 15.9375 15.9375 12.825 15.9375 9C15.9375 5.175 12.825 2.0625 9 2.0625Z" fill="black"/>
<path d="M6.87801 11.6855C6.73551 11.6855 6.59301 11.633 6.48051 11.5205C6.26301 11.303 6.26301 10.943 6.48051 10.7255L10.7255 6.48051C10.943 6.26301 11.303 6.26301 11.5205 6.48051C11.738 6.69801 11.738 7.05801 11.5205 7.27551L7.27551 11.5205C7.17051 11.633 7.02051 11.6855 6.87801 11.6855Z" fill="black"/>
<path d="M11.123 11.6855C10.9805 11.6855 10.838 11.633 10.7255 11.5205L6.48051 7.27551C6.26301 7.05801 6.26301 6.69801 6.48051 6.48051C6.69801 6.26301 7.05801 6.26301 7.27551 6.48051L11.5205 10.7255C11.738 10.943 11.738 11.303 11.5205 11.5205C11.408 11.633 11.2655 11.6855 11.123 11.6855Z" fill="black"/>
</svg>
