<svg width="49" height="46" viewBox="0 0 49 46" fill="none" xmlns="http://www.w3.org/2000/svg">
<rect x="0.5" y="0.5" width="48" height="45" rx="22.5" fill="white" stroke="#303644"/>
<path d="M30.758 17C30.148 17 29.588 16.65 29.308 16.11L28.588 14.66C28.128 13.75 26.928 13 25.908 13H23.618C22.588 13 21.388 13.75 20.928 14.66L20.208 16.11C19.928 16.65 19.368 17 18.758 17C16.588 17 14.868 18.83 15.008 20.99L15.528 29.25C15.648 31.31 16.758 33 19.518 33H29.998C32.758 33 33.858 31.31 33.988 29.25L34.508 20.99C34.648 18.83 32.928 17 30.758 17ZM23.258 18.25H26.258C26.668 18.25 27.008 18.59 27.008 19C27.008 19.41 26.668 19.75 26.258 19.75H23.258C22.848 19.75 22.508 19.41 22.508 19C22.508 18.59 22.848 18.25 23.258 18.25ZM24.758 29.12C22.898 29.12 21.378 27.61 21.378 25.74C21.378 23.87 22.888 22.36 24.758 22.36C26.628 22.36 28.138 23.87 28.138 25.74C28.138 27.61 26.618 29.12 24.758 29.12Z" fill="#292D32"/>
</svg>
