<svg width="221" height="46" viewBox="0 0 221 46" fill="none" xmlns="http://www.w3.org/2000/svg">
<rect x="0.5" y="0.5" width="220" height="45" rx="22.5" fill="white"/>
<path d="M68.6 16C69.7 16 70.6 15.1 70.6 14C70.6 12.9 69.7 12 68.6 12C67.5 12 66.6 12.9 66.6 14C66.6 15.1 67.5 16 68.6 16ZM65 29.9L66 25.5L68.1 27.5V33.5H70.1V26L68 24L68.6 21C69.9 22.5 71.9 23.5 74.1 23.5V21.5C72.2 21.5 70.6 20.5 69.8 19.1L68.8 17.5C68.4 16.9 67.8 16.5 67.1 16.5C66.8 16.5 66.6 16.6 66.3 16.6L61.1 18.8V23.5H63.1V20.1L64.9 19.4L63.3 27.5L58.4 26.5L58 28.5L65 29.9Z" fill="#303644"/>
<path d="M104.848 15.608V30.424H106.992V15.608H104.848ZM100.48 17.144V17.528C100.48 21.496 98.944 24.184 94.688 26.232L95.792 27.928C101.056 25.384 102.592 21.672 102.592 17.144H100.48ZM95.472 17.144V18.824H101.488V17.144H95.472ZM109.359 23.544V25.24H122.783V23.544H109.359ZM111.007 15.896V17.512H119.055V18.408H111.023V21.512H113.135V19.912H121.151V15.896H111.007ZM111.023 20.872V22.488H121.439V20.872H111.023ZM115.007 21.656V24.472H117.135V21.656H115.007ZM110.847 26.072V27.752H119.119V30.376H121.247V26.072H110.847ZM138.366 15.592V30.456H140.494V15.592H138.366ZM135.774 20.776V22.488H138.862V20.776H135.774ZM131.486 17.944V19.256C131.486 22.008 130.318 24.84 127.838 26.008L129.086 27.688C131.854 26.328 133.166 22.872 133.166 19.256V17.944H131.486ZM131.982 17.944V19.256C131.982 22.76 133.262 26.072 136.046 27.384L137.278 25.72C134.798 24.6 133.646 21.864 133.646 19.256V17.944H131.982ZM128.446 17.032V18.744H136.686V17.032H128.446ZM146.077 17.256V18.184C146.077 20.072 145.037 22.008 142.573 22.824L143.629 24.504C146.493 23.56 147.821 21.016 147.821 18.184V17.256H146.077ZM146.509 17.256V18.184C146.509 20.824 147.789 23.144 150.605 23.992L151.613 22.328C149.229 21.608 148.237 19.912 148.237 18.184V17.256H146.509ZM143.133 16.6V18.296H151.133V16.6H143.133ZM152.317 15.608V24.392H154.445V15.608H152.317ZM153.853 19.016V20.76H156.413V19.016H153.853ZM149.613 24.664C146.525 24.664 144.589 25.736 144.589 27.544C144.589 29.352 146.525 30.424 149.613 30.424C152.685 30.424 154.621 29.352 154.621 27.544C154.621 25.736 152.685 24.664 149.613 24.664ZM149.613 26.328C151.501 26.328 152.509 26.712 152.509 27.544C152.509 28.376 151.501 28.792 149.613 28.792C147.725 28.792 146.701 28.376 146.701 27.544C146.701 26.712 147.725 26.328 149.613 26.328Z" fill="#303644"/>
</svg>
