<svg width="9" height="32" viewBox="0 0 9 32" fill="none" xmlns="http://www.w3.org/2000/svg">
<path d="M0.782495 32C0.5836 32 0.384705 31.8708 0.227682 31.5939C-0.0758941 31.0587 -0.0758941 30.1727 0.227682 29.6375L7.05292 17.6035C7.55539 16.7175 7.55539 15.2779 7.05292 14.3919L0.227682 2.35789C-0.0758941 1.82264 -0.0758941 0.936698 0.227682 0.401442C0.531259 -0.133814 1.03373 -0.133814 1.33731 0.401442L8.16255 12.4355C8.69642 13.3768 9 14.6503 9 15.9977C9 17.3451 8.70689 18.6186 8.16255 19.5599L1.33731 31.5939C1.18028 31.8523 0.98139 32 0.782495 32Z" fill="#C4C4C4"/>
</svg>
